<?xml version="1.0" encoding="utf-8"?>
<!-- Generator: Adobe Illustrator 22.0.1, SVG Export Plug-In . SVG Version: 6.00 Build 0)  -->
<svg version="1.1" id="Layer_1" xmlns="http://www.w3.org/2000/svg" xmlns:xlink="http://www.w3.org/1999/xlink" x="0px" y="0px"
	 viewBox="0 0 291.1 34.5" style="enable-background:new 0 0 291.1 34.5;" xml:space="preserve">
<style type="text/css">
	.st0{fill:#FFFFFF;}
</style>
<title>harlequin-logo</title>
<g id="Layer_2_1_">
	<g id="Layer_1-2">
		<path class="st0" d="M25,15.3c0-0.7-0.3-0.8-1.4-0.8h-16c-1,0-1.3,0.1-1.3,0.8v8.9c0,1.7,0.3,2.9,2.1,3.4c0.5,0.1,0.9,0,0.9,0.4
			c0,0.2-0.1,0.3-0.3,0.3C7.4,28.1,5.9,28,4.3,28c-2.2,0-3.6,0.2-3.9,0.2H0.2c-0.1,0-0.2-0.2-0.2-0.3c0-0.5,1.3-0.2,2.2-0.9
			c0.7-0.5,1.1-5,1.1-13.3c0-0.8,0-3.5,0-7.9V5.2c0-2.1,0-3.2-1-3.8s-2-0.3-2-0.8c0.1-0.1,0.3-0.3,0.5-0.3s2.3,0.2,5.7,0.2
			c1.7,0,2.6-0.1,2.8-0.1s0.4,0.1,0.4,0.3c0,0.5-1.6,0.2-2.5,1C6.7,2.2,6.5,2.9,6.5,3.6C6.3,5.5,6.2,7.5,6.2,9.3c0,1,0,1.9,0.1,2.7
			v0.4c0,0.6,0.1,0.8,1.5,0.8h15.7c1,0,1.5-0.1,1.5-1V4.5c0-1.9-0.2-2.8-1.3-3.3c-0.9-0.4-1.6-0.3-1.6-0.5s0.1-0.4,0.2-0.4
			c1.3,0.2,2.7,0.3,4,0.3c2,0,3.4-0.3,4.1-0.3c0.2,0,0.3,0.1,0.3,0.3c0,0.6-1.1,0.3-1.9,1.3s-0.9,5.6-0.9,14v4.8
			c0,3.8,0.1,5.8,1,6.5s1.8,0.3,1.8,0.9c0,0.2-0.1,0.3-0.3,0.3c-1.3-0.2-2.5-0.3-3.8-0.3c-2.1,0-3.6,0.3-4.2,0.3
			c-0.3,0-0.4,0-0.4-0.3c0-0.6,1-0.2,1.9-1s1.2-3,1.2-7.2c0-1.2,0-2.6-0.1-4.1L25,15.3"/>
		<path class="st0" d="M55,18.8c-0.2-0.5-0.5-0.5-0.9-0.5h-8.7c-0.5,0-0.8,0-1,0.6l-2,5.4c-0.2,0.5-0.3,0.9-0.3,1.4
			c0,2,3.3,1.6,3.3,2.3c0,0.1-0.1,0.3-0.5,0.3s-0.5,0-0.8,0c-0.6,0-1.7-0.3-3.4-0.3c-1.4,0-2.5,0.2-3,0.2c-0.1,0-0.2-0.1-0.2-0.2
			c0-0.4,0.5-0.3,1.4-0.8c1.4-0.9,2.9-4.8,5.7-11.8C48.8,4.8,50,0.2,50.5,0.2s0.5,0.9,1,2.5c2.3,6.3,5,13,8,20.3
			c1,2.4,1.6,3.6,3,4.2c0.7,0.3,1,0.2,1,0.5s-0.1,0.3-0.4,0.3s-1.3-0.1-3.2-0.1s-3.2,0.3-3.9,0.3h-0.3c-0.3,0-0.4,0-0.4-0.2
			c0-0.6,2.1-0.2,2.1-1.8c0-0.3-0.1-0.7-0.2-1L55,18.8 M49.6,6c-0.1,0-0.3,0.1-0.4,0.3l-3.9,10.2c-0.1,0.1-0.1,0.3-0.1,0.5
			c0,0.3,0,0.3,0.5,0.3H54c0.2,0,0.2-0.1,0.2-0.3c0-0.2-0.1-0.3-0.1-0.5L49.9,6.4C49.8,6.2,49.7,6,49.6,6"/>
		<path class="st0" d="M95.1,27.4c2.2,1.4,3.1,0.9,3.1,1.5c0,0.2-0.1,0.3-0.4,0.3h-1.1c-4.9,0-9.9-4.8-15.5-14.4h-0.6
			c-1.4,0-2.7-0.1-4.1-0.3c0,1,0,1.9,0,2.8v2.3c0,4.8,0,7,1,7.5c1.5,0.7,2.3,0.4,2.3,1c0,0.1,0,0.3-0.2,0.3
			c-1.6-0.3-3.1-0.4-4.7-0.5c-1.3,0-2.6,0.2-3.9,0.4c-0.2,0-0.2-0.1-0.2-0.3c0-0.5,0.4-0.3,1.3-0.7c1.5-0.5,1.6-2.3,1.6-5.6v-8.9
			c0-7,0-10.5-1-11.1s-2.3-0.2-2.3-0.8c0-0.2,0.1-0.4,0.3-0.4c0,0,0.1,0,0.1,0c0.4,0,1.3,0.2,2.9,0.2C76,0.6,78.5,0,81.1,0
			c5.7,0,9.3,3.2,9.3,7.7c0,3-2,5.5-5.7,6.6C88.7,21.1,92,25.4,95.1,27.4 M80.1,13.9c4.6,0,7.2-2.3,7.2-5.8c0-4.2-2.6-7.2-7-7.2
			c-2.1,0-3.2,0.5-3.4,1.3s-0.3,4.6-0.3,11.2C77.7,13.7,78.8,13.9,80.1,13.9"/>
		<path class="st0" d="M120.8,27.9c-9,0-13.8,0.2-14.4,0.2c-0.3,0-0.4,0-0.4-0.3c0-0.5,0.6-0.3,1.7-0.7s1.2-1.5,1.2-4.2
			c0-1.5,0-3.5,0-6.2c0-8.9-0.1-13.8-0.6-14.8s-2.4-0.6-2.4-1s0.1-0.4,0.4-0.4s1.6,0.2,3.6,0.2c2.6,0,4.4-0.3,5.3-0.3
			c0.1,0,0.2,0.2,0.2,0.3c0,0.6-1.4,0.1-2.6,0.8c-0.8,0.4-0.9,2.5-0.9,6.6V12c0,8.3,0.1,12.8,0.3,13.6s1,1.2,4,1.2
			c5.5,0,9.1-1.1,9.9-2.1s0.6-2.4,1.3-2.4c0.3,0,0.4,0.1,0.4,0.4c0,1.3-0.9,3.1-1.6,5.5C124.4,28,122.7,27.8,120.8,27.9"/>
		<path class="st0" d="M154.3,5.6c-0.2,0-0.4-0.1-0.4-0.3c0.1-0.6,0.2-1.2,0.2-1.8c0-1.5-1.9-2-7.1-2c-1.8,0-3.7,0.1-5.5,0.4
			c-0.2,3.4-0.3,6.7-0.3,9.9v0.8c0,0.9,0.2,1,2,1h2.1c3.9,0,6-0.1,6.8-0.8c1-0.9,0.6-2.2,1.2-2.2c0.2,0,0.3,0.1,0.3,0.3
			c0,0.7-0.3,1.9-0.3,3.5c0,1.8,0.2,3,0.2,3.6c0,0.4,0,0.5-0.3,0.5s-0.2-0.7-0.6-1.9c-0.6-1.8-1.7-2-6.2-2h-2.5
			c-2.6,0-2.7,0.1-2.7,1.1v2.7c0,2.2,0,5,0.2,8.3c1.8,0.3,3.6,0.4,5.4,0.5c4.9,0,7.5-0.8,9.1-3.5c0.6-1,0.6-1.8,1-1.8
			s0.3,0.1,0.3,0.3c-0.3,2.1-0.9,4.2-1.9,6.1c-4.1-0.1-7.3-0.2-9.4-0.2c-6.8,0-10,0.4-10.4,0.4S135,28.2,135,28
			c0-0.6,1.9-0.4,2.5-1.1s0.8-6.1,0.8-16.1V6.6c0-3.2-0.1-4.6-1.2-5.1s-1.8-0.3-1.8-0.8c0-0.2,0.1-0.3,0.4-0.3s1.6,0.2,4.3,0.2
			c1,0,6.2-0.2,15.6-0.2C154.7,3.6,154.9,5.6,154.3,5.6"/>
		<path class="st0" d="M181,28.3h-1.2c-7.4,0-13.5-6.3-13.5-14.3c0-7.8,6.4-14,14.1-14c7.7-0.2,14,5.9,14.2,13.5c0,0.2,0,0.4,0,0.6
			c0,6.2-3.6,11.7-9.4,13.6 M169.2,12.5c0.1,3.4,1.1,6.6,3.1,9.4c2.2,3.2,5.7,5.1,9.6,5.2c5.9,0,9.9-4.7,9.9-10.9
			c0-8.4-5.8-14.7-12-14.7S169.2,6,169.2,12.5"/>
		<path class="st0" d="M213.2,0.4c0.1,0,0.2,0.1,0.2,0.2c0,0.6-1.1,0.3-2.5,0.9c-1,0.5-1.1,2.2-1.1,5.9v11.3c0,5.5,2.9,8.3,8.6,8.3
			c4.5,0,7.7-1.4,8.9-3.7c1.1-1.9,1.4-6.4,1.4-13.7c0-5,0-7.4-1.1-8c-0.8-0.4-2.3-0.1-2.3-0.7c0-0.2,0.2-0.4,0.6-0.4
			c1.1,0,2.4,0.2,3.8,0.2c1.9,0,2.9-0.1,3.1-0.1c0.2,0,0.3,0.2,0.3,0.3c0,0.8-2.7-0.6-2.7,2.2c0,0.2,0,0.3,0,0.5v2.8
			c0,8.7-0.8,14.4-1.4,16.3c-1.1,3.5-4.9,5.6-10.8,5.6c-7.5,0-11.4-3.2-11.4-9.2c0-0.9,0.1-3,0.1-6.3c0-6.8-0.3-10.5-0.9-11.1
			c-0.9-0.9-2.4-0.2-2.4-0.9c0-0.3,0.2-0.3,0.5-0.3s1.7,0.2,4.1,0.2S212.1,0.4,213.2,0.4"/>
		<path class="st0" d="M251.9,0.6c0,0.6-1.9,0.3-2.9,1.2s-1.1,6-1.1,15.9v4.2c0,3.7,0.2,5.1,1.7,5.4c1.3,0.3,2.2,0,2.2,0.5
			c0,0.3-0.2,0.4-0.7,0.4h-0.3c-1.3,0-3.1-0.2-5.5-0.2c-1.7,0-3,0.2-3.7,0.2c-0.2,0-0.5,0-0.7,0s-0.4,0-0.4-0.3s0.2-0.4,0.6-0.4
			c2.1,0,3.1-0.6,3.5-1.8s0.5-5,0.5-11.4c0-7.9-0.1-11.9-1.4-12.5c-1.5-0.7-2.9-0.2-2.9-0.8c0-0.3,0.2-0.4,0.5-0.4h0.2
			c1.3,0,2.7,0.1,4.1,0.1c2.6,0,4.6-0.4,5.8-0.4C251.7,0.4,251.9,0.4,251.9,0.6"/>
		<path class="st0" d="M264.2,5.4v4c0,10.5,0,16.1,0.8,17.1c1,1.2,4.3,0.7,4.3,1.5c0,0.2-0.1,0.2-0.3,0.2c-1,0-2.3-0.2-3.7-0.2
			c-2.2,0-3.8,0.3-4.6,0.3c-0.3,0-0.5,0-0.5-0.3c0-0.4,0.7-0.3,1.9-0.7c1-0.3,1.1-0.7,1.1-2v-2c0-1.9,0.1-3.9,0.1-6.1v-3.1
			c0-6.9,0-10.8-1.2-12s-2.9-0.9-2.9-1.4c0-0.2,0.1-0.3,0.4-0.3c0.6,0,1.4,0.1,2.5,0.1c0.8,0,1.7,0,2.7-0.1c4,5.2,11.3,11.9,21.7,21
			l0.4-0.2c0.1-2,0.1-3.7,0.1-5.1v-2.3c0-7.8,0-11.7-1.6-12.7c-1-0.7-2.2-0.3-2.2-0.8c0-0.2,0.1-0.3,0.3-0.3c0.8,0,2.3,0.3,4.3,0.3
			c1,0,1.9-0.1,2.6-0.1c0.4,0,0.6,0,0.6,0.4c0,0.5-1.2,0.2-2,0.7c-1,0.8-1.1,4.6-1.1,12v5.5c0,4.2,0.1,7,0.1,8.4c0,0.2,0,0.4,0,0.6
			c0,0.3-0.1,0.4-0.4,0.4c-0.5,0-1-2.1-5.6-6.5c-8.9-8.7-15-13.8-17.6-16.5L264.2,5.4"/>
		<path class="st0" d="M188.2,26.2c-1.8,1.3-4.8,2.2-7.9,3l5.6,1.6c3.4,1,5.8,1.7,7.2,1.7c2.2,0,3.3-1.5,3.6-1.5
			c0.2,0,0.4,0.1,0.4,0.3c0,0,0,0,0,0.1c0,0.4-0.5,0.8-1.4,1.6c-1.2,1-2.7,1.6-4.3,1.5c-2.2-0.1-4.4-0.5-6.5-1.2l-7.5-2.4
			c-0.8-0.3-1.7-0.5-2.6-0.5c-1.9,0-3.1,0.9-3.7,0.9c-0.1,0-0.2-0.1-0.2-0.2c0,0,0,0,0,0c0-0.7,2.7-2.2,5.9-2.2c0.3,0,0.8,0,1.5,0.1
			c0.7-0.2,1.7-0.5,2.9-0.8"/>
	</g>
</g>
</svg>
